<mxfile host="app.diagrams.net" modified="2023-06-14T09:29:05.289Z" agent="Mozilla/5.0 (Windows NT 10.0; Win64; x64; rv:109.0) Gecko/20100101 Firefox/114.0" etag="nshyIAJFH9NmjSJzxOJl" version="21.3.8" type="device">
  <diagram name="Page-1" id="3TrodI1tR_GNB39qqe0T">
    <mxGraphModel dx="1687" dy="934" grid="1" gridSize="10" guides="1" tooltips="1" connect="1" arrows="1" fold="1" page="1" pageScale="1" pageWidth="827" pageHeight="1169" math="0" shadow="0">
      <root>
        <mxCell id="0" />
        <mxCell id="1" parent="0" />
        <mxCell id="5ekajTyzZzrkgOxZF10o-51" style="edgeStyle=orthogonalEdgeStyle;rounded=0;orthogonalLoop=1;jettySize=auto;html=1;" edge="1" parent="1" source="5ekajTyzZzrkgOxZF10o-6" target="5ekajTyzZzrkgOxZF10o-50">
          <mxGeometry relative="1" as="geometry" />
        </mxCell>
        <mxCell id="5ekajTyzZzrkgOxZF10o-6" value="Views" style="rounded=0;whiteSpace=wrap;html=1;fillColor=#d0cee2;strokeColor=#56517e;" vertex="1" parent="1">
          <mxGeometry x="195" y="435" width="120" height="60" as="geometry" />
        </mxCell>
        <mxCell id="5ekajTyzZzrkgOxZF10o-45" style="edgeStyle=orthogonalEdgeStyle;rounded=0;orthogonalLoop=1;jettySize=auto;html=1;" edge="1" parent="1" source="5ekajTyzZzrkgOxZF10o-10" target="5ekajTyzZzrkgOxZF10o-6">
          <mxGeometry relative="1" as="geometry" />
        </mxCell>
        <mxCell id="5ekajTyzZzrkgOxZF10o-10" value="Components" style="rounded=0;whiteSpace=wrap;html=1;fillColor=#bac8d3;strokeColor=#23445d;" vertex="1" parent="1">
          <mxGeometry x="195" y="525" width="120" height="60" as="geometry" />
        </mxCell>
        <mxCell id="5ekajTyzZzrkgOxZF10o-47" style="edgeStyle=orthogonalEdgeStyle;rounded=0;orthogonalLoop=1;jettySize=auto;html=1;" edge="1" parent="1" source="5ekajTyzZzrkgOxZF10o-25" target="5ekajTyzZzrkgOxZF10o-32">
          <mxGeometry relative="1" as="geometry" />
        </mxCell>
        <mxCell id="5ekajTyzZzrkgOxZF10o-25" value="App" style="rounded=0;whiteSpace=wrap;html=1;fillColor=#b0e3e6;strokeColor=#0e8088;" vertex="1" parent="1">
          <mxGeometry x="195" y="275" width="120" height="60" as="geometry" />
        </mxCell>
        <mxCell id="5ekajTyzZzrkgOxZF10o-49" style="edgeStyle=orthogonalEdgeStyle;rounded=0;orthogonalLoop=1;jettySize=auto;html=1;" edge="1" parent="1" source="5ekajTyzZzrkgOxZF10o-31" target="5ekajTyzZzrkgOxZF10o-10">
          <mxGeometry relative="1" as="geometry" />
        </mxCell>
        <mxCell id="5ekajTyzZzrkgOxZF10o-31" value="Hooks" style="rounded=0;whiteSpace=wrap;html=1;fillColor=#fad7ac;strokeColor=#b46504;" vertex="1" parent="1">
          <mxGeometry x="351" y="525" width="120" height="60" as="geometry" />
        </mxCell>
        <mxCell id="5ekajTyzZzrkgOxZF10o-48" style="edgeStyle=orthogonalEdgeStyle;rounded=0;orthogonalLoop=1;jettySize=auto;html=1;" edge="1" parent="1" source="5ekajTyzZzrkgOxZF10o-32" target="5ekajTyzZzrkgOxZF10o-38">
          <mxGeometry relative="1" as="geometry" />
        </mxCell>
        <mxCell id="5ekajTyzZzrkgOxZF10o-32" value="Contexts" style="rounded=0;whiteSpace=wrap;html=1;fillColor=#fad9d5;strokeColor=#ae4132;" vertex="1" parent="1">
          <mxGeometry x="195" y="185" width="120" height="60" as="geometry" />
        </mxCell>
        <mxCell id="5ekajTyzZzrkgOxZF10o-43" style="edgeStyle=orthogonalEdgeStyle;rounded=0;orthogonalLoop=1;jettySize=auto;html=1;" edge="1" parent="1" source="5ekajTyzZzrkgOxZF10o-36" target="5ekajTyzZzrkgOxZF10o-31">
          <mxGeometry relative="1" as="geometry" />
        </mxCell>
        <mxCell id="5ekajTyzZzrkgOxZF10o-36" value="Services" style="rounded=0;whiteSpace=wrap;html=1;fillColor=#fad9d5;strokeColor=#ae4132;" vertex="1" parent="1">
          <mxGeometry x="511" y="525" width="120" height="60" as="geometry" />
        </mxCell>
        <mxCell id="5ekajTyzZzrkgOxZF10o-38" value="index" style="rounded=0;whiteSpace=wrap;html=1;fillColor=#fad7ac;strokeColor=#b46504;" vertex="1" parent="1">
          <mxGeometry x="195" y="95" width="120" height="60" as="geometry" />
        </mxCell>
        <mxCell id="5ekajTyzZzrkgOxZF10o-52" style="edgeStyle=orthogonalEdgeStyle;rounded=0;orthogonalLoop=1;jettySize=auto;html=1;" edge="1" parent="1" source="5ekajTyzZzrkgOxZF10o-50" target="5ekajTyzZzrkgOxZF10o-25">
          <mxGeometry relative="1" as="geometry" />
        </mxCell>
        <mxCell id="5ekajTyzZzrkgOxZF10o-50" value="Routes" style="rounded=0;whiteSpace=wrap;html=1;fillColor=#b1ddf0;strokeColor=#10739e;" vertex="1" parent="1">
          <mxGeometry x="195" y="355" width="120" height="60" as="geometry" />
        </mxCell>
        <mxCell id="5ekajTyzZzrkgOxZF10o-53" value="" style="rounded=1;whiteSpace=wrap;html=1;fillColor=none;" vertex="1" parent="1">
          <mxGeometry x="160" y="60" width="530" height="560" as="geometry" />
        </mxCell>
      </root>
    </mxGraphModel>
  </diagram>
</mxfile>
